<?xml version="1.0" encoding="UTF-8" standalone="no"?>
<!-- Filename: 845d3833431f67e26d2a22555f76d60fec701d9ab411af68c8db952b0e5a356e.svg -->
<!-- Created with https://svgstud.io -->
<svg
  version="1.1"
  xmlns="http://www.w3.org/2000/svg"
  xmlns:xlink="http://www.w3.org/1999/xlink"
  xmlns:svg="http://www.w3.org/2000/svg"
  xmlns:rdf="http://www.w3.org/1999/02/22-rdf-syntax-ns#"
  xmlns:cc="http://creativecommons.org/ns#"
  xmlns:dc="http://purl.org/dc/elements/1.1/"
  viewBox="0 0 768 768"
  width="768"
  height="768"
  role="img"
  aria-labelledby="titleID descID"
>
  <title id="titleID">rocket</title>
  <desc id="descID">AI-generated SVG illustration: rocket, created on https://svgstud.io</desc>

  <rect width="100%" height="100%" fill="white" />

  <metadata id="copyright">
    Created by https://svgstud.io and licensed under CC-BY-SA 4.0 license. Please attribute https://svgstud.io
  </metadata>
  <metadata id="prompt">
    rocket
  </metadata>
  <metadata id="version">
    7
  </metadata>
  <metadata>
    <rdf:RDF
      xmlns:rdf="http://www.w3.org/1999/02/22-rdf-syntax-ns#"
      xmlns:cc="http://creativecommons.org/ns#"
      xmlns:dc="http://purl.org/dc/elements/1.1/"
    >
      <cc:Work rdf:about="">
        <cc:license rdf:resource="http://creativecommons.org/licenses/by-sa/4.0/" />
        <dc:creator>
          <cc:Agent>
            <dc:title>https://svgstud.io</dc:title>
          </cc:Agent>
        </dc:creator>
      </cc:Work>
      <cc:License rdf:about="http://creativecommons.org/licenses/by-sa/4.0/">
        <cc:permits rdf:resource="http://creativecommons.org/ns#Reproduction" />
        <cc:permits rdf:resource="http://creativecommons.org/ns#Distribution" />
        <cc:requires rdf:resource="http://creativecommons.org/ns#Notice" />
        <cc:requires rdf:resource="http://creativecommons.org/ns#Attribution" />
        <cc:permits rdf:resource="http://creativecommons.org/ns#DerivativeWorks" />
        <cc:requires rdf:resource="http://creativecommons.org/ns#ShareAlike" />
      </cc:License>
    </rdf:RDF>
  </metadata>
  <metadata id="uid">845d3833431f67e26d2a22555f76d60fec701d9ab411af68c8db952b0e5a356e</metadata>

  <path stroke="none" fill="black" fill-rule="evenodd" d="M398.11,611.00C396.95,611.00 396.00,610.48 396.00,609.85C396.00,609.22 399.04,605.98 402.75,602.66C406.46,599.34 412.88,593.15 417.00,588.91C421.12,584.66 426.34,578.11 428.59,574.35C430.83,570.58 433.87,564.51 435.33,560.85C436.79,557.20 438.65,551.33 439.46,547.82C440.28,544.31 441.40,537.18 441.96,531.97C442.52,526.76 443.67,512.38 444.51,500.00C445.36,487.62 446.72,471.69 447.55,464.58C448.55,456.07 448.72,451.32 448.07,450.67C447.42,450.02 444.18,450.81 438.57,452.97C433.67,454.87 429.85,456.95 429.58,457.88C429.32,458.77 428.61,464.90 428.01,471.50C427.41,478.10 426.45,484.70 425.87,486.16C425.30,487.63 423.63,489.31 422.16,489.90C420.70,490.49 416.57,491.68 413.00,492.55C409.43,493.42 404.42,494.79 401.88,495.60C397.26,497.07 397.26,497.07 391.96,508.79C389.05,515.23 385.16,523.24 383.33,526.60C380.97,530.90 379.42,535.75 378.08,543.10C377.03,548.82 375.64,558.08 374.99,563.67C374.27,569.87 374.16,574.47 374.71,575.45C375.45,576.77 378.03,574.39 388.37,562.88C395.38,555.07 403.22,545.62 405.81,541.87C408.39,538.13 410.84,535.05 411.25,535.03C411.66,535.01 412.00,537.04 412.00,539.54C412.00,542.20 411.11,545.82 409.86,548.29C408.68,550.61 404.55,556.77 400.67,562.00C396.80,567.23 387.19,579.26 379.31,588.75C371.43,598.24 364.62,606.00 364.18,606.00C363.74,606.00 362.69,605.44 361.85,604.75C361.01,604.06 359.15,601.44 357.72,598.92C356.28,596.40 353.78,591.00 352.15,586.92C350.53,582.84 347.09,575.00 344.52,569.50C341.95,564.00 337.81,554.66 335.32,548.74C332.83,542.83 330.37,537.73 329.85,537.41C329.34,537.09 326.86,538.52 324.34,540.58C321.82,542.64 317.10,547.68 313.85,551.78C310.59,555.87 307.04,560.96 305.96,563.08C304.88,565.20 303.32,569.50 302.51,572.62C301.70,575.75 300.83,578.51 300.58,578.75C300.33,579.00 297.74,578.43 294.81,577.48C291.89,576.53 285.55,573.94 280.73,571.72C273.95,568.61 271.82,567.14 271.35,565.26C271.02,563.93 271.01,560.54 271.35,557.73C271.68,554.92 273.07,550.34 274.43,547.56C275.80,544.78 281.32,536.80 286.71,529.84C292.09,522.87 300.08,512.82 304.45,507.50C312.39,497.82 312.39,497.82 312.83,488.73C313.26,479.64 313.26,479.64 310.76,481.57C309.38,482.63 304.94,486.20 300.88,489.50C296.83,492.80 285.69,502.21 276.13,510.41C262.08,522.46 258.36,526.20 256.72,529.90C255.36,532.98 254.54,537.49 254.21,543.74C253.84,550.91 253.40,553.00 252.29,553.00C251.50,553.00 248.07,550.87 244.67,548.26C241.28,545.65 234.96,540.14 230.62,536.01C226.29,531.88 219.12,524.00 214.69,518.50C210.26,513.00 204.29,504.90 201.43,500.50C198.56,496.10 193.97,488.00 191.22,482.50C188.47,477.00 184.64,468.23 182.69,463.00C180.75,457.77 178.02,449.00 176.64,443.50C175.25,438.00 173.45,428.55 172.62,422.50C171.79,416.45 170.81,407.23 170.44,402.00C170.06,396.69 170.29,386.11 170.96,378.00C171.61,370.02 172.78,359.83 173.56,355.35C174.34,350.86 176.58,341.90 178.54,335.43C180.50,328.97 184.30,318.76 186.98,312.76C189.65,306.76 194.43,297.49 197.58,292.17C200.74,286.85 206.35,278.45 210.05,273.50C213.75,268.55 219.87,261.05 223.64,256.83C227.41,252.61 234.45,245.55 239.28,241.14C244.11,236.73 251.70,230.57 256.15,227.46C260.60,224.34 267.59,219.98 271.70,217.76C275.91,215.49 279.52,212.81 279.98,211.62C280.44,210.45 282.47,204.12 284.51,197.54C286.55,190.97 290.55,181.06 293.41,175.53C296.28,170.00 300.91,162.08 303.72,157.92C306.52,153.76 311.50,147.02 314.78,142.93C318.07,138.84 324.75,131.42 329.63,126.43C334.51,121.44 342.29,114.37 346.91,110.72C351.54,107.06 358.64,102.44 362.69,100.44C368.58,97.53 371.20,96.80 375.82,96.80C378.99,96.80 383.22,97.48 385.21,98.32C387.21,99.15 392.29,102.16 396.51,105.01C400.73,107.86 409.15,114.98 415.22,120.84C421.29,126.70 429.72,135.81 433.95,141.07C438.19,146.33 444.28,154.88 447.50,160.07C450.71,165.26 455.04,173.18 457.12,177.67C459.83,183.50 461.56,186.04 463.20,186.54C464.47,186.92 470.00,189.48 475.49,192.23C480.98,194.97 489.34,199.86 494.05,203.09C498.77,206.32 506.87,212.51 512.06,216.84C517.25,221.17 525.60,229.01 530.60,234.24C535.61,239.48 543.22,248.35 547.51,253.94C551.80,259.54 557.98,268.25 561.25,273.31C564.51,278.36 570.26,288.80 574.01,296.50C577.77,304.20 582.70,315.90 584.97,322.50C587.24,329.10 590.53,341.25 592.28,349.50C595.36,364.06 595.46,365.24 595.46,389.50C595.47,411.19 595.18,416.04 593.25,426.12C592.03,432.50 589.49,443.08 587.61,449.62C585.73,456.15 582.31,466.23 580.02,472.00C577.73,477.77 573.83,486.28 571.35,490.90C568.86,495.52 563.99,503.62 560.52,508.90C557.04,514.18 549.96,523.45 544.78,529.50C539.60,535.55 531.12,544.36 525.93,549.07C520.75,553.79 512.90,560.33 508.50,563.60C504.10,566.87 497.12,571.83 493.00,574.62C488.88,577.41 482.57,581.39 479.00,583.46C475.43,585.53 468.23,589.15 463.00,591.50C457.77,593.85 449.45,597.20 444.50,598.96C439.55,600.72 427.56,604.14 417.86,606.58C408.15,609.01 399.26,611.00 398.11,611.00zM365.03,556.00C365.46,556.00 368.18,551.39 371.07,545.75C373.96,540.11 377.14,534.38 378.12,533.00C379.11,531.62 380.60,526.45 381.44,521.50C382.27,516.55 383.25,509.27 383.62,505.32C384.27,498.14 384.27,498.14 380.39,497.49C378.25,497.13 372.93,496.19 368.56,495.40C364.20,494.62 360.27,494.33 359.83,494.77C359.40,495.20 358.32,502.97 357.44,512.03C356.56,521.09 356.11,530.52 356.43,533.00C356.75,535.48 358.20,541.10 359.64,545.50C361.09,549.90 362.71,554.06 363.26,554.75C363.80,555.44 364.60,556.00 365.03,556.00zM490.98,526.00C491.49,526.00 493.94,522.85 496.43,519.00C498.92,515.15 501.82,510.31 502.86,508.25C503.91,506.19 505.25,502.02 505.85,499.00C506.44,495.98 507.39,487.20 507.97,479.50C508.54,471.80 509.25,462.26 509.54,458.30C510.01,452.00 509.84,450.99 508.22,450.12C507.19,449.57 501.34,448.39 495.21,447.49C489.08,446.59 483.11,446.00 481.93,446.18C479.90,446.49 479.94,446.68 483.03,450.50C484.80,452.70 486.87,455.95 487.63,457.72C488.40,459.53 489.00,464.33 488.99,468.72C488.99,473.00 488.70,478.86 488.35,481.75C488.01,484.64 487.27,487.00 486.72,487.00C486.17,487.00 483.22,484.86 480.18,482.25C477.13,479.64 471.01,474.47 466.57,470.76C462.13,467.05 457.99,464.02 457.36,464.01C456.73,464.00 455.96,465.01 455.66,466.25C455.35,467.49 454.59,472.63 453.98,477.69C453.09,485.04 453.13,487.36 454.18,489.34C454.91,490.70 460.00,496.64 465.50,502.53C471.00,508.42 478.78,516.11 482.78,519.62C486.79,523.13 490.48,526.00 490.98,526.00zM256.44,501.81C257.15,501.64 268.59,490.87 281.87,477.88C306.00,454.26 306.00,454.26 306.00,446.60C306.00,440.88 305.64,438.80 304.57,438.39C303.79,438.09 301.10,438.75 298.61,439.85C296.11,440.95 292.05,443.25 289.57,444.95C287.10,446.65 282.25,450.51 278.80,453.52C275.34,456.53 272.17,459.00 271.76,459.00C271.34,459.00 271.00,455.85 271.00,452.00C271.00,445.57 270.83,445.00 268.92,445.00C267.77,445.00 263.39,446.38 259.19,448.06C254.98,449.75 251.18,451.66 250.73,452.31C250.29,452.97 250.20,460.02 250.53,468.00C250.86,475.98 251.54,486.00 252.04,490.27C252.54,494.54 253.44,498.95 254.04,500.08C254.64,501.20 255.72,501.98 256.44,501.81zM382.87,489.80C387.50,489.50 387.50,489.50 387.50,442.79C387.50,397.26 387.45,396.05 385.50,394.57C384.40,393.74 382.74,393.05 381.81,393.03C380.87,393.01 378.85,394.09 377.31,395.41C374.50,397.83 374.50,397.83 374.19,435.16C374.01,455.70 374.16,475.77 374.52,479.77C374.92,484.21 375.77,487.63 376.71,488.57C377.75,489.61 379.72,490.00 382.87,489.80zM227.35,455.02C228.53,454.56 231.11,453.49 233.08,452.64C235.05,451.80 237.13,450.53 237.71,449.81C238.29,449.08 239.05,440.71 239.41,431.00C239.76,421.38 240.31,411.31 240.64,408.63C241.08,404.94 242.08,402.81 244.78,399.82C246.74,397.65 256.95,388.97 267.46,380.54C277.98,372.11 287.18,364.48 287.92,363.60C288.66,362.71 289.25,360.52 289.23,358.74C289.21,356.96 289.15,352.20 289.10,348.18C289.02,342.32 288.71,340.92 287.54,341.18C286.74,341.35 278.08,348.47 268.29,356.99C258.51,365.51 245.69,377.14 239.82,382.84C233.26,389.19 228.34,394.88 227.08,397.56C225.95,399.96 224.35,405.81 223.52,410.55C222.69,415.29 221.90,426.80 221.76,436.16C221.52,451.73 221.66,453.27 223.35,454.52C224.58,455.42 225.93,455.59 227.35,455.02zM539.27,453.92C540.32,453.97 541.49,452.88 542.12,451.25C542.82,449.46 543.06,440.42 542.80,425.42C542.41,402.85 542.34,402.21 539.74,396.90C537.97,393.28 533.97,388.43 527.79,382.40C522.68,377.41 510.40,366.39 500.50,357.91C490.60,349.42 480.83,341.21 478.79,339.65C476.75,338.10 474.62,337.12 474.04,337.47C473.46,337.83 473.03,341.32 473.07,345.31C473.11,349.26 473.45,353.24 473.82,354.14C474.19,355.04 480.15,360.44 487.05,366.14C493.95,371.84 505.20,381.31 512.05,387.19C518.90,393.07 525.38,399.37 526.46,401.19C528.25,404.21 528.43,406.46 528.46,426.70C528.49,443.49 528.82,449.22 529.79,450.20C530.51,450.92 532.53,452.03 534.29,452.67C536.06,453.32 538.30,453.88 539.27,453.92zM365.50,445.61C367.39,445.51 367.51,444.70 367.78,430.38C368.05,415.27 368.05,415.27 364.28,414.65C362.20,414.30 358.89,414.02 356.93,414.01C354.96,414.00 349.11,413.29 343.93,412.41C338.74,411.54 328.09,408.68 320.25,406.05C306.07,401.30 306.00,401.29 306.00,403.59C306.00,404.86 306.93,410.74 308.08,416.66C309.22,422.57 310.58,428.21 311.09,429.18C311.61,430.15 313.94,432.05 316.27,433.41C318.60,434.76 323.91,436.98 328.08,438.34C332.25,439.70 340.35,441.73 346.08,442.87C351.81,444.00 358.07,445.11 360.00,445.32C361.93,445.54 364.40,445.67 365.50,445.61zM399.79,446.00C401.69,446.00 408.73,444.89 415.43,443.53C422.13,442.18 432.29,439.44 438.01,437.45C443.72,435.46 450.55,432.74 453.18,431.41C455.81,430.08 458.65,427.93 459.49,426.65C460.33,425.37 461.77,419.31 462.69,413.18C463.62,407.05 464.08,401.75 463.73,401.40C463.38,401.05 459.14,402.34 454.30,404.27C449.46,406.20 443.25,408.48 440.50,409.35C437.75,410.21 432.39,411.62 428.59,412.48C424.78,413.34 417.13,414.71 411.59,415.51C406.04,416.32 400.04,417.23 398.25,417.53C395.00,418.09 395.00,418.09 395.00,431.38C395.00,438.69 395.30,444.97 395.67,445.33C396.03,445.70 397.89,446.00 399.79,446.00zM248.96,439.00C249.48,439.00 255.00,435.71 261.21,431.70C267.42,427.68 277.77,421.13 284.22,417.15C290.67,413.16 296.14,409.58 296.39,409.18C296.63,408.79 296.20,402.85 295.43,395.98C294.66,389.12 293.78,382.04 293.47,380.25C293.16,378.46 292.52,377.00 292.05,377.00C291.58,377.00 285.19,381.81 277.85,387.68C270.51,393.55 260.79,401.45 256.25,405.23C248.00,412.10 248.00,412.10 248.00,425.55C248.00,433.46 248.39,439.00 248.96,439.00zM520.15,438.00C520.62,438.00 521.00,431.96 521.00,424.57C521.00,414.45 520.66,410.80 519.61,409.76C518.85,408.99 514.01,405.38 508.86,401.72C503.71,398.06 494.10,390.79 487.50,385.55C480.90,380.31 475.17,376.02 474.77,376.02C474.37,376.01 473.79,377.01 473.48,378.25C473.18,379.49 472.83,386.50 472.72,393.83C472.50,407.16 472.50,407.16 488.00,416.17C496.52,421.13 506.20,427.12 509.50,429.47C512.80,431.83 516.36,434.72 517.40,435.88C518.45,437.05 519.69,438.00 520.15,438.00zM401.31,402.32C403.62,402.07 410.45,401.18 416.50,400.36C422.55,399.53 431.10,397.95 435.50,396.85C439.90,395.74 447.55,393.27 452.50,391.37C457.45,389.46 462.18,387.23 463.00,386.42C464.25,385.18 464.56,379.97 464.85,355.22C465.06,337.20 464.74,320.58 464.02,313.00C463.37,306.12 462.17,295.55 461.36,289.50C460.55,283.45 458.76,272.88 457.39,266.00C456.02,259.12 452.87,245.11 450.39,234.86C447.91,224.60 445.30,215.42 444.59,214.45C443.37,212.78 442.93,212.77 436.82,214.31C433.26,215.20 426.11,216.62 420.92,217.46C415.74,218.30 402.28,219.49 391.00,220.10C379.34,220.74 362.74,220.93 352.50,220.54C342.60,220.17 331.14,219.45 327.04,218.93C321.35,218.22 319.29,218.29 318.38,219.25C317.73,219.94 315.38,227.70 313.17,236.50C310.95,245.30 308.44,256.32 307.59,261.00C306.74,265.68 305.37,274.45 304.54,280.50C303.72,286.55 302.58,297.30 302.02,304.40C301.46,311.49 301.01,324.99 301.01,334.40C301.02,343.80 301.46,358.02 301.99,366.00C302.53,373.98 303.23,382.20 303.57,384.27C304.03,387.09 304.91,388.42 307.06,389.53C308.64,390.35 315.01,392.32 321.22,393.92C327.42,395.51 338.05,397.53 344.84,398.41C351.63,399.28 359.62,400.00 362.59,400.00C367.07,400.00 368.00,399.70 368.01,398.25C368.01,397.29 369.33,394.21 370.94,391.41C372.54,388.61 375.00,385.58 376.39,384.66C377.79,383.75 380.49,383.00 382.39,383.00C384.62,383.00 386.90,383.89 388.81,385.49C390.44,386.87 392.72,390.01 393.89,392.48C395.05,394.96 396.00,398.03 396.00,399.32C396.00,400.61 396.25,401.92 396.56,402.23C396.87,402.54 399.01,402.58 401.31,402.32zM374.70,349.96C369.46,349.93 363.78,349.31 361.50,348.50C359.30,347.73 356.27,345.63 354.76,343.84C353.25,342.06 351.68,339.00 351.26,337.05C350.85,335.10 350.51,329.03 350.51,323.58C350.50,313.65 350.50,313.65 353.50,312.84C355.15,312.40 361.29,311.98 367.15,311.93C373.85,311.86 378.67,312.28 380.15,313.06C381.44,313.73 384.19,315.61 386.25,317.23C388.74,319.18 390.00,320.98 390.00,322.58C390.00,324.55 389.49,325.00 387.25,325.02C385.74,325.02 384.00,325.36 383.40,325.77C382.79,326.17 381.75,327.55 381.07,328.83C380.40,330.11 380.09,331.80 380.39,332.58C380.76,333.53 382.50,334.00 385.72,333.99C388.35,333.99 393.33,333.53 396.80,332.96C400.26,332.40 403.50,332.19 403.99,332.49C404.50,332.81 404.45,334.28 403.86,335.97C403.30,337.58 400.97,340.89 398.67,343.33C395.32,346.89 393.45,347.99 389.20,348.88C386.29,349.50 379.76,349.98 374.70,349.96zM415.60,292.00C412.39,291.99 409.39,291.31 407.50,290.14C405.85,289.12 403.61,287.29 402.53,286.07C401.08,284.45 400.45,282.01 400.17,276.95C399.82,270.90 400.10,269.50 402.42,265.54C403.88,263.06 406.73,259.89 408.77,258.51C410.99,257.00 413.87,256.00 416.00,256.00C418.51,256.00 420.67,256.93 423.40,259.18C425.52,260.93 428.09,264.19 429.11,266.43C430.12,268.67 430.97,272.75 430.98,275.50C430.99,278.31 430.23,282.03 429.25,283.98C428.29,285.89 425.97,288.48 424.10,289.73C421.68,291.35 419.25,292.00 415.60,292.00zM368.18,287.83C356.81,287.73 344.57,287.39 341.00,287.08C334.50,286.50 334.50,286.50 334.50,276.50C334.50,266.50 334.50,266.50 348.20,266.38C355.73,266.31 362.60,265.99 363.45,265.66C364.42,265.29 365.00,263.82 365.00,261.74C365.00,259.91 365.70,255.75 366.54,252.49C367.39,249.23 368.86,245.71 369.79,244.68C370.73,243.64 372.71,242.17 374.20,241.40C375.68,240.63 379.37,240.00 382.38,240.00C386.03,240.00 388.38,240.53 389.43,241.57C390.71,242.85 391.01,245.93 391.08,258.32C391.12,266.67 391.29,276.11 391.45,279.31C391.66,283.35 391.31,285.55 390.30,286.56C389.12,287.73 385.03,287.97 368.18,287.83zM424.19,276.32C425.19,275.43 426.00,273.61 426.00,272.30C426.00,270.98 425.31,268.57 424.47,266.95C423.43,264.92 422.20,264.00 420.54,264.00C418.98,264.00 417.90,264.73 417.47,266.09C417.11,267.23 417.10,269.70 417.44,271.56C417.79,273.42 419.05,275.62 420.23,276.45C422.17,277.80 422.57,277.79 424.19,276.32zM366.97,207.83C379.33,207.92 396.81,207.50 405.80,206.89C414.79,206.28 426.06,205.26 430.83,204.62C439.36,203.48 439.50,203.41 439.32,200.77C439.22,199.30 437.07,193.18 434.54,187.19C432.01,181.20 429.37,175.53 428.68,174.58C427.51,172.97 426.75,172.97 416.47,174.46C410.43,175.34 398.30,176.38 389.50,176.78C380.70,177.18 364.73,177.25 354.00,176.95C337.24,176.48 334.27,176.62 332.88,177.95C332.00,178.80 329.67,183.32 327.72,188.00C325.76,192.68 323.61,198.42 322.92,200.76C322.24,203.10 322.01,205.35 322.42,205.76C322.83,206.17 327.96,206.76 333.83,207.08C339.70,207.40 354.61,207.74 366.97,207.83zM368.33,166.00C383.36,166.00 400.57,165.51 406.58,164.92C412.58,164.32 417.88,163.47 418.34,163.02C418.81,162.58 418.62,161.15 417.94,159.86C417.25,158.56 414.79,155.01 412.46,151.97C410.13,148.93 404.91,142.89 400.86,138.54C396.81,134.20 390.86,128.70 387.64,126.32C384.11,123.72 380.70,122.00 379.06,122.00C377.57,122.00 374.25,123.39 371.69,125.08C369.13,126.78 364.95,130.49 362.39,133.33C359.83,136.17 355.86,140.97 353.56,144.00C351.27,147.03 347.50,152.53 345.19,156.23C342.89,159.92 341.00,163.64 341.00,164.48C341.00,165.80 344.51,166.00 368.33,166.00z" />

</svg>
